<svg xmlns="http://www.w3.org/2000/svg" xmlns:xlink="http://www.w3.org/1999/xlink" xml:space="preserve" width="4.26481in" height="4.75067in" style="shape-rendering:geometricPrecision; text-rendering:geometricPrecision; image-rendering:optimizeQuality; fill-rule:evenodd; clip-rule:evenodd" viewBox="0 0 4.26481 4.75066">
 <defs>
  <style type="text/css">
   <![CDATA[
    .fil6 {fill:#1566B2}
    .fil5 {fill:#218B80}
    .fil7 {fill:#971EA7}
    .fil4 {fill:#BB7D1A}
    .fil0 {fill:url(#id0)}
    .fil1 {fill:url(#id1)}
    .fil2 {fill:url(#id2)}
    .fil3 {fill:url(#id3)}
   ]]>
  </style>
     <linearGradient id="id0" gradientUnits="userSpaceOnUse" x1="2.95695" y1="2.83397" x2="1.73363" y2="4.73692">
   <stop offset="0" style="stop-color:#25AD9F"/>
         <stop offset="1" style="stop-color:#52FFEE"/>
  </linearGradient>
     <linearGradient id="id1" gradientUnits="userSpaceOnUse" x1="1.06068" y1="3.46906" x2="1.06068" y2="2.02342">
   <stop offset="0" style="stop-color:#167EE0"/>
         <stop offset="1" style="stop-color:#33C9FF"/>
  </linearGradient>
     <linearGradient id="id2" gradientUnits="userSpaceOnUse" x1="3.20399" y1="1.33366" x2="3.20399" y2="2.70523">
   <stop offset="0" style="stop-color:#EB9C1D"/>
         <stop offset="1" style="stop-color:#FFEB36"/>
  </linearGradient>
     <linearGradient id="id3" gradientUnits="userSpaceOnUse" x1="2.43338" y1="0.415031" x2="1.40577" y2="1.51788">
   <stop offset="0" style="stop-color:#F187FF"/>
         <stop offset="1" style="stop-color:#BD22D1"/>
  </linearGradient>
 </defs>
    <g id="Layer_x0020_1">
  <metadata id="CorelCorpID_0Corel-Layer"/>
        <g id="_391740544">
   <path id="_391747240" class="fil0" d="M2.45507 4.65095l0.742858 -0.428889 0.757617 -0.437413 -3.937e-005 -0.00111417c0.116248,-0.0574724 0.209449,-0.154476 0.262082,-0.273433l-0.000224409 -0.000165354 -0.000149606 0.000342519 -0.940058 -0.690054 -0.331118 0.189303 -1.42798 0.783322c-0.215059,0.117949 -0.333952,0.17287 -0.609484,0.17287 -0.154264,0 -0.301334,-0.0306338 -0.43559,-0.0860629l0.593055 0.342405 0.730921 0.422c0.0354882,0.0204882 0.0723031,0.0422677 0.109716,0.0589173 0.0688464,0.0306378 0.145083,0.0476889 0.225303,0.0476889 0.0804212,0 0.156835,-0.0171338 0.225815,-0.0479173 0.0332362,-0.0148346 0.0657558,-0.0336023 0.0972716,-0.0517992z"/>
            <path id="_391749472" class="fil1" d="M0.0476259 1.24036c-0.0305826,0.0687952 -0.0475787,0.144957 -0.0475866,0.225106l1.1811e-005 0.000960629 -7.87401e-006 1.1811e-005 -3.937e-006 0.909322 -7.87401e-006 0.874424c0,0.0256535 -0.000370078,0.0516771 0.00154331,0.0772558 0.0139409,0.188193 0.121791,0.350244 0.276842,0.439551 0.0101693,0.00587007 0.0194409,0.011559 0.0296496,0.0174527l0.810015 0.467661 3.937e-006 -3.937e-006 -0.0520393 -0.0300472 -0.593055 -0.342405c0.134256,0.0554291 0.281327,0.0860629 0.43559,0.0860629 0.218779,0 0.338807,-0.0346299 0.486633,-0.107945l0.726484 -1.09492 -2.07407 -1.52248z"/>
            <path id="_391746544" class="fil2" d="M4.21722 3.51028c0.0305826,-0.0687913 0.0475787,-0.144953 0.0475866,-0.225102l-1.1811e-005 -0.000960629 7.87401e-006 -1.1811e-005 3.937e-006 -0.909322 7.87401e-006 -0.902708 -9.44881e-005 -5.11811e-005 9.05511e-005 -0.00733464c-1.1811e-005,-0.211311 -0.118134,-0.395 -0.291949,-0.488704l2.3622e-005 -0.000586614 -0.774035 -0.446889 0.593055 0.342401c-0.134256,-0.0554251 -0.28133,-0.0860629 -0.43559,-0.0860629 -0.2075,0 -0.33563,0.0332519 -0.486358,0.107441l-0.726799 1.09542 2.07406 1.52247z"/>
            <path id="_391747456" class="fil3" d="M1.80369 0.103248l-0.736724 0.425358 -0.737988 0.426074c-0.0123464,0.00712204 -0.0218228,0.0133976 -0.0342401,0.0199764 -0.109413,0.0582007 -0.197031,0.151988 -0.247433,0.265909l0.000177165 0.000129921 0.000145669 -0.000330708 0.94346 0.692551 1.79741 -0.997948c0.189921,-0.104181 0.324126,-0.150023 0.567814,-0.150023 0.089181,0 0.175957,0.0102401 0.259244,0.0295905l7.87401e-006 0c0.0045,0.00104331 0.00899212,0.00211811 0.0134685,0.00321653l7.87401e-006 0 0.00670866 0.00166929 3.937e-006 0 0.00669291 0.00170472 7.87401e-006 3.937e-006 0.00667716 0.00174409 3.937e-006 0 0.00666141 0.0017874 7.87401e-006 0 0.00664566 0.00182283 3.937e-006 3.937e-006 0.00662992 0.0018622 3.937e-006 0 0.00661417 0.00190157 3.937e-006 3.937e-006 0.00659842 0.00193701 3.937e-006 3.937e-006 0.00658267 0.00197638 3.937e-006 3.937e-006 0.00656692 0.00201575 3.937e-006 3.937e-006 0.00654724 0.00205512 3.937e-006 3.937e-006 0.00653149 0.00209055 3.937e-006 3.937e-006 0.00651181 0.00212992 3.937e-006 3.937e-006c0.00651181,0.0021496 0.0129921,0.00435826 0.0194488,0.00662204l0 3.937e-006c0.00861023,0.00302362 0.0171732,0.00613779 0.025689,0.00935826l0 3.937e-006c0.010622,0.00401574 0.0211732,0.00818109 0.0316417,0.0125039l-0.592999 -0.34237 -0.0520039 -0.0300236 -0.633468 -0.365732c-0.0414291,-0.0239252 -0.0825787,-0.048622 -0.124728,-0.0704881 -0.0765196,-0.0398189 -0.1635,-0.0623621 -0.255744,-0.0623621 -0.0891298,0 -0.173346,0.0210551 -0.24798,0.0584015 -0.0276338,0.0138386 -0.0543897,0.0293504 -0.0812361,0.0448464z"/>
            <path id="_391740712" class="fil4" d="M4.04755 1.02436c-0.0234567,-0.0179921 -0.0483661,-0.0341496 -0.074559,-0.0482834l2.7559e-005 -0.000602362 -0.774031 -0.446866 -0.0520866 -0.0300748 -5.51181e-005 5.11811e-005 0.0520039 0.0300236 0.593059 0.342393c-0.134272,-0.0554212 -0.281342,-0.0860432 -0.435602,-0.0860432 -0.190921,0 -0.314641,0.0281614 -0.45061,0.0904448l-0.0364448 0.0180197 -0.366594 0.552484 0.440413 -0.240984c0.132988,-0.0729488 0.228901,-0.121453 0.381004,-0.159894 0.255283,-0.0644999 0.569133,-0.0734369 0.723476,-0.0206693z"/>
            <path id="_368349384" class="fil5" d="M4.01663 3.74832c0.0877361,-0.0583188 0.157921,-0.140917 0.200957,-0.238224l-0.000216535 -0.00015748 -0.000149606 0.000342519 -0.940054 -0.690047 -0.105248 0.0601614 0.844712 0.867924z"/>
            <path id="_394385120" class="fil6" d="M0.217421 3.72626c0.0198858,0.015252 0.0408149,0.0292047 0.0626771,0.0416929 0.00730314,0.00416929 0.0134724,0.00812598 0.0206063,0.0122441l0.174901 0.10098 8.66141e-005 3.5433e-005 -0.00270078 -0.00155905c0.134256,0.0554291 0.281327,0.0860629 0.43559,0.0860629 0.218764,0 0.338787,-0.0346299 0.486594,-0.107929l0.369216 -0.556492 -0.175831 0.0981259 -0.266661 0.146279c-0.132961,0.0729724 -0.228901,0.121476 -0.380972,0.15989 -0.255315,0.0645275 -0.569165,0.0734645 -0.723507,0.0206693z"/>
            <path id="_368366264" class="fil7" d="M1.09416 1.87569l-0.84694 -0.872613c-0.0872361,0.0582598 -0.157043,0.140586 -0.199917,0.237492l0.000177165 0.000129921 0.000145669 -0.000330708 0.94346 0.692551 0.103075 -0.0572283z"/>
  </g>
 </g>
</svg>